<?xml version="1.0" encoding="iso-8859-1"?>
<!-- Generator: Adobe Illustrator 19.0.0, SVG Export Plug-In . SVG Version: 6.00 Build 0)  -->
<svg version="1.1" id="Layer_1" xmlns="http://www.w3.org/2000/svg" xmlns:xlink="http://www.w3.org/1999/xlink" x="0px" y="0px"
	 viewBox="0 0 392.598 392.598" style="enable-background:new 0 0 392.598 392.598;" xml:space="preserve">
<g>
	<path style="fill:#FFFFFF;" d="M325.172,168.081h-20.816v90.117h64.065c1.487-10.02,2.327-20.299,2.327-30.707v-6.271
		C347.41,216.113,329.115,194.78,325.172,168.081z"/>
	<path style="fill:#FFFFFF;" d="M282.505,368.291v-88.307h-59.604C237.511,334.093,272.356,363.96,282.505,368.291z"/>
	<path style="fill:#FFFFFF;" d="M282.505,168.081h-20.816c-3.943,26.828-22.238,48.032-45.576,53.269v6.271
		c0,10.343,0.776,20.622,2.327,30.707h64.065V168.081z"/>
	<path style="fill:#FFFFFF;" d="M304.356,279.984v88.307c10.15-4.331,41.632-27.41,59.604-88.307H304.356z"/>
</g>
<g>
	<path style="fill:#FFC10D;" d="M278.626,189.867h3.879v68.202h-42.02c-1.164-7.111-1.939-14.352-2.263-21.721
		C256.453,227.103,270.998,210.489,278.626,189.867z"/>
	<path style="fill:#FFC10D;" d="M245.592,279.984h36.913v62.513c-2.715-2.392-5.947-5.624-9.503-9.956
		C260.849,317.931,251.539,299.83,245.592,279.984z"/>
	<path style="fill:#FFC10D;" d="M304.356,279.984h36.978c-5.947,19.846-15.257,37.883-27.41,52.558
		c-3.62,4.331-6.788,7.564-9.568,10.02V279.984L304.356,279.984z"/>
	<path style="fill:#FFC10D;" d="M348.703,236.347c-0.323,7.37-1.099,14.675-2.327,21.786h-42.02v-68.267h3.943
		C315.863,210.424,330.408,227.103,348.703,236.347z"/>
</g>
<path style="fill:#FFFFFF;" d="M202.214,287.289H43.572v-93.414h22.562c6.012,0,10.925-4.848,10.925-10.925
	c0-6.012-4.848-10.925-10.925-10.925H43.572v-14.481h40.727c6.012,0,10.925-4.848,10.925-10.925c0-6.012-4.848-10.925-10.925-10.925
	H43.572v-14.675h243.653v25.083h21.85V99.168H21.786v198.917c0,6.012,4.848,10.925,10.925,10.925h176.743
	C206.61,302.028,204.218,294.723,202.214,287.289z"/>
<path style="fill:#FFC10D;" d="M309.075,32.711c0-6.012-4.848-10.925-10.925-10.925H32.711c-6.012,0-10.925,4.848-10.925,10.925
	v44.8h287.289V32.711z"/>
<path style="fill:#56ACE0;" d="M43.572,121.147v14.675h40.727c6.012,0,10.925,4.848,10.925,10.925
	c0,6.012-4.848,10.925-10.925,10.925H43.572v14.481h22.562c6.012,0,10.925,4.848,10.925,10.925c0,6.012-4.848,10.925-10.925,10.925
	H43.572v93.414H202.15c-5.172-18.941-7.887-39.046-7.887-59.733v-15.968c0-6.012,4.848-10.925,10.925-10.925
	c19.523,0,35.491-19.523,35.491-43.507c0-6.012,4.848-10.925,10.925-10.925h35.62v-25.083L43.572,121.147L43.572,121.147z"/>
<g>
	<path style="fill:#194F82;" d="M381.673,200.663c-19.523,0-35.491-19.523-35.491-43.507c0-6.012-4.849-10.925-10.925-10.925h-4.331
		V32.711C330.925,14.675,316.25,0,298.214,0H32.711C14.675,0,0,14.675,0,32.711v265.503c0,18.036,14.675,32.711,32.711,32.711
		h186.828c5.689,10.537,34.586,61.673,73.891,61.673c49.002,0,99.168-80.032,99.168-165.042v-15.968
		C392.533,205.511,387.685,200.663,381.673,200.663z M304.356,368.291v-88.307h59.604
		C346.053,340.816,314.505,363.96,304.356,368.291z M21.786,298.214V99.297h287.289v46.933h-21.786h-35.62
		c-6.012,0-10.925,4.848-10.925,10.925c0,23.984-15.903,43.507-35.491,43.507c-6.012,0-10.925,4.848-10.925,10.925v15.968
		c0,20.687,2.715,40.792,7.887,59.733c2.004,7.499,4.396,14.739,7.176,21.786H32.711C26.699,309.075,21.786,304.226,21.786,298.214z
		 M21.786,32.711c0-6.012,4.848-10.925,10.925-10.925h265.503c6.012,0,10.925,4.848,10.925,10.925v44.8H21.786V32.711z
		 M222.901,279.984h59.604v88.307C272.356,363.96,237.511,334.093,222.901,279.984z M218.44,258.133
		c-1.487-10.02-2.327-20.299-2.327-30.707v-6.271c23.337-5.107,41.632-26.44,45.576-53.269h20.816v90.117H218.44V258.133z
		 M370.747,227.491c0,10.343-0.776,20.622-2.327,30.707h-64.065v-90.117h20.816c3.943,26.828,22.238,48.032,45.576,53.269V227.491z"
		/>
	<path style="fill:#194F82;" d="M183.531,38.465h-11.507c-6.012,0-10.925,4.848-10.925,10.925c0,6.012,4.848,10.925,10.925,10.925
		h11.507c6.012,0,10.925-4.848,10.925-10.925C194.392,43.313,189.543,38.465,183.531,38.465z"/>
	<path style="fill:#194F82;" d="M232.921,38.465h-11.507c-6.012,0-10.925,4.848-10.925,10.925c0,6.012,4.848,10.925,10.796,10.925
		h11.507c6.012,0,10.925-4.848,10.925-10.925C243.717,43.313,238.933,38.465,232.921,38.465z"/>
	<path style="fill:#194F82;" d="M282.182,38.465h-11.507c-6.012,0-10.925,4.848-10.925,10.925c0,6.012,4.848,10.925,10.925,10.925
		h11.507c6.012,0,10.925-4.848,10.925-10.925S288.194,38.465,282.182,38.465z"/>
</g>
<g>
</g>
<g>
</g>
<g>
</g>
<g>
</g>
<g>
</g>
<g>
</g>
<g>
</g>
<g>
</g>
<g>
</g>
<g>
</g>
<g>
</g>
<g>
</g>
<g>
</g>
<g>
</g>
<g>
</g>
</svg>
