<?xml version="1.0" encoding="UTF-8"?><svg id="Camada_1" xmlns="http://www.w3.org/2000/svg" viewBox="0 0 1964.3 475.98"><defs><style>.cls-1{fill:#eaeaea;}</style></defs><g><path class="cls-1" d="M599.33,142.68h-124.88l-47.56,47.56-13.03,13.03-13.03-13.03-47.56-47.56-19.68-19.68-.28,.28-.29-.28-19.68,19.68-47.56,47.56-13.03,13.03-13.03-13.03-47.56-47.56H0l47.56,47.56,109.1,109.1,33.63,33.63,33.63-33.63,28.81-28.81,33.63-33.63,46.66-46.66h.53l46.66,46.66,33.63,33.63,28.81,28.81,33.63,33.63,33.63-33.63,109.1-109.1,47.56-47.56h-67.26Zm-409.03,123.03l-75.47-75.47h57.62l46.66,46.66-28.81,28.81Zm286,0l-28.81-28.81,46.66-46.66h57.62l-75.47,75.47Z"/><path class="cls-1" d="M366.92,317.47l22.98-22.98-33.63-33.63-22.98,22.98h0l-22.98-22.98-33.63,33.63,22.98,22.98-28.81,28.81-33.63,33.63,33.63,33.63,28.81,28.81,33.63,33.63,33.63-33.63,28.81-28.81,33.63-33.63-33.63-33.63-28.81-28.81Zm-33.63,91.25l-28.81-28.81,28.81-28.81,28.81,28.81-28.81,28.81Z"/><polygon class="cls-1" points="252.73 148.1 333.56 67.26 414.39 148.1 448.02 114.47 428.41 94.86 428.41 94.85 367.19 33.63 367.19 33.63 333.56 0 333.56 0 333.56 0 333.56 0 333.56 0 333.56 0 333.56 0 299.93 33.63 299.93 33.63 238.71 94.85 238.71 94.86 219.1 114.47 252.73 148.1"/></g><g><path class="cls-1" d="M878.68,418.83h-28.26l-120.19-276.11h61.46l90.23,205.73,83.38-205.73h29.96l-116.58,276.11Z"/><path class="cls-1" d="M1128.47,418.83c-42.23,0-68.22-12.99-94.92-38.26-27.43-25.99-40.79-59.91-40.79-101.78s13.71-73.99,41.51-98.89c27.07-24.54,52.7-37.18,93.84-37.18s67.13,12.27,94.56,36.45c28.15,25.27,42.23,59.19,42.23,101.06s-13.35,74.35-40.42,99.98c-26.35,25.63-52.7,38.62-96.01,38.62Zm-.36-250.85c-27.07,0-39.7,8.66-54.5,27.43-14.44,18.05-22.38,46.2-22.38,84.82s7.94,67.49,22.38,85.54c14.8,18.77,28.15,27.43,57.39,27.43,25.63,0,41.51-9.02,56.67-27.43,14.08-17.69,18.41-45.12,18.41-85.18s-3.97-66.05-18.41-84.46c-14.44-18.77-31.4-28.15-59.55-28.15Z"/><path class="cls-1" d="M1455.11,288.9c-14.08,6.5-36.45,7.58-65.69,7.58h-19.85v122.36h-53.06V142.72h60.64c27.07,0,48.36,2.89,63.88,7.22,15.88,4.69,28.87,13.72,39.34,25.27,10.47,12.63,15.52,27.79,15.52,45.48,0,15.52-3.25,28.87-10.47,41.15-7.22,12.27-17.69,20.93-30.32,27.07Zm-73.99-119.11h-11.55v101.42h10.11c15.16,0,25.63-.36,33.21-2.89,7.58-2.17,13.72-6.14,18.77-14.08,5.05-7.94,7.94-18.05,7.94-30.68,0-20.21-5.05-33.21-13.35-41.15-8.3-7.94-22.38-12.63-45.12-12.63Z"/><path class="cls-1" d="M1656.87,171.78v247.05h-53.42V171.78h-107.56l.72-29.06h268.53l.36,29.06h-108.64Z"/><path class="cls-1" d="M1901.67,418.83c-15.52-38.98-39.34-95.65-39.34-95.65h-84.1l-36.82,95.65h-31.04l114.05-276.11h22.21l117.66,276.11h-62.63Zm-82.29-199.96l-32.12,79.77h65.33l-33.21-79.77Z"/></g></svg>