<?xml version="1.0" encoding="UTF-8"?><svg id="Camada_1" xmlns="http://www.w3.org/2000/svg" viewBox="0 0 1067.87 762.51"><defs><style>.cls-1{fill:#6f5245;}</style></defs><path class="cls-1" d="M960.12,228.58h-200.05l-76.19,76.19-20.88,20.88-20.88-20.88-76.19-76.19-31.53-31.53-.46,.46-.46-.46-31.53,31.53-76.19,76.19-20.88,20.88-20.88-20.88-76.19-76.19H0l76.19,76.19,174.78,174.78,53.88,53.88,53.88-53.88,46.15-46.15,53.88-53.88,74.75-74.75h.86l74.75,74.75,53.88,53.88,46.15,46.15,53.88,53.88,53.88-53.88,174.78-174.78,76.19-76.19h-107.75ZM304.85,425.67l-120.91-120.9h92.3l74.75,74.75-46.15,46.15Zm458.17,0l-46.15-46.15,74.75-74.75h92.3l-120.91,120.9Z"/><path class="cls-1" d="M587.81,508.58l36.81-36.81-53.88-53.88-36.81,36.81h0l-36.81-36.81-53.88,53.88,36.81,36.81-46.15,46.15-53.88,53.88,53.88,53.88,46.15,46.15,53.88,53.88,53.88-53.88,46.15-46.15,53.88-53.88-53.88-53.88-46.15-46.15Zm-53.88,146.18l-46.15-46.15,46.15-46.15,46.15,46.15-46.15,46.15Z"/><polygon class="cls-1" points="404.87 237.25 534.36 107.76 663.85 237.25 717.73 183.37 686.32 151.96 686.32 151.96 588.24 53.88 588.24 53.88 534.37 0 534.36 0 534.36 0 534.36 0 534.36 0 534.36 0 534.36 0 480.48 53.88 480.48 53.88 382.41 151.96 382.41 151.96 350.99 183.37 404.87 237.25"/></svg>