<?xml version="1.0" encoding="UTF-8"?><svg id="Camada_1" xmlns="http://www.w3.org/2000/svg" viewBox="0 0 935.27 935.1"><defs><style>.cls-1{fill:#c5b59c;}</style></defs><g><path class="cls-1" d="M891.7,326.23l-46.92-1.46-1.5-3.92,37.66-37.03,.99-1.02c.6-.6,1.4-1.37,2.45-2.23,.65-.71,1.4-1.37,1.89-2.01l6.68-6.51,4.05,10.56-9.53,9.62-29.43,28.82,33.52,1c2.2-.02,4.12-.02,5.7,.02l14.9,.07,1.84,4.8-22.31-.71Z"/><path class="cls-1" d="M861.26,380.04c-2.09-9.55-.44-16.05,4.03-23.34,4.42-7.46,11.47-12.16,20.93-14.22,9.21-2.01,17.34-.54,24.39,4.41,6.96,4.97,10.99,10.15,13.02,19.44,2.03,9.3,.55,15.76-3.61,23.25-4.24,7.51-11.16,12.35-20.71,14.44-9.21,2.01-17.49,.66-24.59-4.1-7.1-4.77-11.33-10.07-13.47-19.87Zm58.18-12.8c-1.45-6.62-4.3-9.24-9.61-11.85-5.21-2.55-12.22-2.94-21.35-.95-9.21,2.01-15.59,5.34-19.26,9.82-3.65,4.57-5.12,8.31-3.56,15.43,1.35,6.2,4.39,9.66,9.62,12.29,5.23,2.63,12.04,2.11,21.34,.08,9.04-1.98,15.46-4.34,19.13-8.83,3.84-4.52,5.18-9.2,3.7-15.99Z"/><path class="cls-1" d="M901.29,448.94c-1.66-2.89-2.27-8.09-2.74-15.02l-.38-5.56-12.48,.85c-2.65,.18-4.02,.19-6.07,.41l.96-1.1c-.96,1.1-11.39,1.8-11.39,1.8l-.74-10.86,16.5-1.12,29.93-2.03,17.27-1.17,.92,13.51c.43,6.41,.09,11.42-.7,14.99-.78,3.66-2.63,6.79-5.13,9.28-2.57,2.58-5.92,3.92-9.94,4.2-3.51,.24-6.64-.32-9.48-1.68-2.85-1.44-4.89-3.71-6.54-6.51Zm27.14-19.02c-.1-1.45-.18-2.65-.33-3.59l-25.65,1.74,.22,3.25c.24,3.51,.42,6.16,1.24,8.16,.73,1.84,1.95,3.39,4.09,4.53,2.06,1.23,4.76,1.74,7.83,1.53,4.96-.34,8.21-1.76,10.11-4.12,1.99-2.28,2.86-6.03,2.48-11.51Z"/><path class="cls-1" d="M929.32,505.07l.35-9.08-42.22-1.64-17.39-.67,.42-10.96,17.39,.67,42.22,1.64,.31-7.96,.68-17.56,4.19,.33-2.4,62.01-4.2-.08,.65-16.7Z"/><path class="cls-1" d="M863.04,547.99c9.19-2.07,12.63-2.9,12.63-2.9l11.29-2.68,3.4-20.9-21.02-12.27,.88-5.41,58.79,36.3-.51,3.13-67.38,16.49,1.91-11.76Zm51.54-12.03l-20.4-12.35-2.9,17.85,23.3-5.5Z"/><path class="cls-1" d="M868.77,664.65l-32.37-34,1.68-3.85,52.82,.09,1.42-.03c.84,0,1.96,.02,3.31,.14,.96-.05,1.96,.01,2.76-.1l9.33,.06-4.53,10.37-13.54,.16-41.19-.15,23.16,24.26c1.58,1.53,2.95,2.88,4.04,4.01l10.56,10.51-2.06,4.71-15.38-16.18Z"/><path class="cls-1" d="M809.31,681.57c5.22-8.26,10.95-11.74,19.25-13.8,8.39-2.21,16.7-.61,24.89,4.56,7.97,5.03,12.73,11.79,14.28,20.26,1.47,8.43,.71,14.94-4.37,22.99s-10.67,11.61-18.89,14.03c-8.29,2.37-16.62,.96-24.88-4.25-7.97-5.03-12.92-11.8-14.63-20.18-1.71-8.38-1-15.12,4.36-23.6Zm50.42,31.72c3.61-5.73,3.42-9.6,1.48-15.18-1.92-5.47-6.64-10.68-14.54-15.66-7.97-5.03-14.85-7.14-20.61-6.52-5.81,.69-9.48,2.33-13.37,8.49-3.39,5.36-3.65,9.96-1.78,15.5,1.87,5.54,7.1,9.95,15.14,15.03,7.83,4.94,14.06,7.76,19.82,7.14,5.91-.53,10.15-2.92,13.86-8.79Z"/><path class="cls-1" d="M789.49,758.76c.85-3.22,4.06-7.36,8.59-12.62l3.63-4.22-9.49-8.16c-2.02-1.73-3-2.69-4.62-3.97l1.45-.11c-1.45,.11-9.38-6.71-9.38-6.71l7.09-8.26,12.55,10.78,22.75,19.55,13.13,11.28-8.83,10.27c-4.19,4.88-7.95,8.2-11.02,10.19-3.13,2.06-6.64,2.99-10.16,3.02-3.64,.03-6.97-1.36-10.03-3.98-2.67-2.29-4.5-4.89-5.58-7.84-1.02-3.02-.88-6.07-.09-9.23Zm32.69,5.49c.95-1.1,1.73-2.02,2.28-2.79l-19.5-16.76-2.12,2.47c-2.29,2.67-4.02,4.68-4.84,6.69-.77,1.82-.99,3.78-.27,6.1,.6,2.33,2.17,4.58,4.51,6.59,3.77,3.24,7.09,4.51,10.1,4.16,3.02-.23,6.27-2.3,9.84-6.46Z"/><path class="cls-1" d="M770.01,818.44l6.63-6.22-28.91-30.82-11.9-12.69,8-7.51,11.9,12.69,28.91,30.82,5.81-5.45,12.82-12.02,2.75,3.18-45.26,42.45-2.94-3.01,12.19-11.43Z"/><path class="cls-1" d="M692.69,802.42c8,4.99,11.03,6.81,11.03,6.81l9.92,6.02,17.09-12.49-6.34-23.5,4.43-3.24,16.36,67.14-2.56,1.87-59.55-35.58,9.62-7.03Zm45.14,27.63l-5.85-23.11-14.6,10.67,20.45,12.44Z"/><path class="cls-1" d="M614.93,889.59l.77-46.94,3.9-1.56,37.58,37.11,1.04,.97c.61,.59,1.39,1.38,2.26,2.42,.72,.64,1.39,1.38,2.04,1.86l6.61,6.59-10.5,4.21-9.76-9.39-29.25-29-.51,33.53c.05,2.2,.08,4.12,.07,5.7l.15,14.9-4.77,1.91,.39-22.31Z"/><path class="cls-1" d="M560.68,859.93c9.51-2.22,16.04-.67,23.39,3.69,7.52,4.31,12.32,11.29,14.53,20.72,2.15,9.18,.79,17.33-4.05,24.45-4.87,7.04-9.98,11.14-19.25,13.3-9.26,2.17-15.75,.78-23.3-3.27-7.57-4.13-12.51-10.98-14.74-20.5-2.15-9.18-.92-17.48,3.75-24.64s9.91-11.47,19.67-13.75Zm13.64,57.98c6.59-1.54,9.17-4.43,11.71-9.78,2.47-5.24,2.77-12.27,.64-21.36-2.15-9.18-5.56-15.51-10.1-19.11-4.62-3.58-8.39-4.99-15.48-3.34-6.18,1.44-9.59,4.53-12.15,9.79s-1.93,12.07,.23,21.33c2.11,9.01,4.57,15.39,9.11,19,4.58,3.77,9.28,5.05,16.04,3.47Z"/><path class="cls-1" d="M492.39,900.97c2.87-1.7,8.06-2.38,14.98-2.95l5.55-.46-1.03-12.47c-.22-2.65-.25-4.02-.5-6.07l1.11,.94c-1.11-.94-1.97-11.36-1.97-11.36l10.85-.89,1.36,16.49,2.46,29.9,1.42,17.26-13.5,1.11c-6.41,.53-11.42,.25-15-.48-3.67-.73-6.83-2.53-9.36-4.99-2.62-2.54-4.01-5.86-4.34-9.88-.29-3.5,.23-6.64,1.54-9.5,1.4-2.87,3.63-4.94,6.42-6.64Zm19.42,26.87c1.45-.12,2.65-.22,3.58-.38l-2.11-25.63-3.25,.27c-3.5,.29-6.15,.51-8.14,1.36-1.83,.75-3.36,2-4.47,4.15-1.2,2.08-1.67,4.78-1.42,7.86,.41,4.95,1.88,8.19,4.27,10.05,2.31,1.96,6.08,2.77,11.54,2.32Z"/><path class="cls-1" d="M436.66,929.79l9.08,.22,1.03-42.24,.42-17.39,10.97,.27-.42,17.39-1.03,42.24,7.97,.19,17.57,.43-.27,4.19-62.03-1.51,.02-4.2,16.71,.41Z"/><path class="cls-1" d="M392.78,864.14c2.2,9.16,3.08,12.58,3.08,12.58l2.84,11.25,20.94,3.09,11.97-21.19,5.43,.8-35.45,59.31-3.14-.46-17.46-67.13,11.79,1.74Zm12.77,51.36l12.05-20.57-17.89-2.64,5.84,23.22Z"/><path class="cls-1" d="M276.22,871.59l33.52-32.87,3.87,1.63,.68,52.82,.06,1.42c.02,.84,.01,1.96-.09,3.31,.06,.96,.01,1.96,.14,2.76l.08,9.33-10.43-4.38-.35-13.54-.45-41.19-23.92,23.51c-1.51,1.6-2.84,2.99-3.96,4.1l-10.36,10.71-4.74-1.99,15.95-15.61Z"/><path class="cls-1" d="M258.43,812.39c8.34,5.09,11.89,10.78,14.08,19.05,2.33,8.35,.85,16.69-4.2,24.96-4.92,8.05-11.6,12.9-20.05,14.57-8.41,1.59-14.93,.93-23.05-4.03-8.12-4.96-11.76-10.5-14.3-18.68-2.49-8.25-1.21-16.61,3.89-24.94,4.91-8.05,11.61-13.09,19.96-14.92s15.11-1.22,23.66,4.01Zm-30.98,50.88c5.78,3.53,9.65,3.28,15.2,1.25,5.44-2,10.58-6.8,15.45-14.77,4.91-8.05,6.92-14.95,6.22-20.71-.78-5.8-2.47-9.44-8.69-13.24-5.41-3.31-10.01-3.5-15.53-1.55-5.51,1.96-9.85,7.24-14.81,15.36-4.83,7.9-7.55,14.17-6.85,19.92,.61,5.9,3.07,10.11,8.99,13.73Z"/><path class="cls-1" d="M180.96,793.68c3.24,.8,7.42,3.96,12.75,8.4l4.28,3.57,8.02-9.61c1.7-2.04,2.65-3.04,3.9-4.67l.13,1.45c-.13-1.45,6.57-9.48,6.57-9.48l8.36,6.97-10.6,12.7-19.22,23.03-11.09,13.29-10.4-8.68c-4.94-4.12-8.31-7.83-10.35-10.87-2.11-3.1-3.09-6.6-3.16-10.12-.09-3.64,1.26-6.99,3.84-10.08,2.25-2.7,4.82-4.57,7.76-5.69,3.01-1.06,6.06-.97,9.23-.22Zm-5.02,32.77c1.12,.93,2.04,1.7,2.82,2.24l16.47-19.74-2.5-2.09c-2.7-2.25-4.74-3.95-6.76-4.75-1.83-.75-3.8-.94-6.1-.18-2.32,.64-4.54,2.24-6.52,4.6-3.19,3.82-4.41,7.15-4.01,10.16,.27,3.02,2.39,6.23,6.6,9.75Z"/><path class="cls-1" d="M121.01,775.07l6.31,6.54,30.4-29.35,12.52-12.09,7.62,7.89-12.52,12.09-30.4,29.35,5.54,5.73,12.21,12.64-3.14,2.79-43.11-44.64,2.96-2.98,11.61,12.02Z"/><path class="cls-1" d="M135.89,697.53c-4.87,8.07-6.65,11.12-6.65,11.12l-5.88,10.01,12.74,16.91,23.4-6.68,3.3,4.38-66.89,17.33-1.91-2.53,34.71-60.06,7.17,9.52Zm-26.97,45.54l23.03-6.19-10.88-14.45-12.15,20.63Z"/><path class="cls-1" d="M47.6,621.05l46.94,.09,1.62,3.88-36.56,38.12-.96,1.05c-.58,.61-1.36,1.41-2.38,2.3-.63,.73-1.36,1.41-1.83,2.07l-6.49,6.7-4.36-10.44,9.24-9.9,28.57-29.67-33.54-.02c-2.2,.08-4.12,.14-5.7,.15l-14.89,.37-1.98-4.75,22.32,.06Z"/><path class="cls-1" d="M76.46,566.38c2.36,9.48,.9,16.03-3.34,23.45-4.2,7.58-11.11,12.49-20.51,14.83-9.15,2.28-17.32,1.05-24.51-3.69-7.11-4.76-11.28-9.82-13.58-19.05-2.3-9.23-1.01-15.74,2.92-23.34,4.02-7.63,10.8-12.67,20.28-15.04,9.15-2.28,17.46-1.17,24.69,3.38,7.23,4.56,11.61,9.74,14.04,19.47Zm-57.78,14.49c1.64,6.57,4.57,9.11,9.95,11.56,5.28,2.39,12.3,2.58,21.37,.32,9.15-2.28,15.43-5.79,18.96-10.38,3.52-4.67,4.87-8.46,3.11-15.53-1.53-6.15-4.67-9.52-9.97-12-5.3-2.48-12.1-1.75-21.33,.55-8.98,2.24-15.32,4.79-18.86,9.38-3.7,4.63-4.91,9.35-3.23,16.09Z"/><path class="cls-1" d="M34.44,498.67c1.74,2.84,2.5,8.02,3.17,14.93l.54,5.54,12.45-1.21c2.64-.26,4.02-.3,6.06-.59l-.92,1.12c.92-1.12,11.33-2.13,11.33-2.13l1.05,10.83-16.46,1.6-29.86,2.89-17.23,1.67-1.31-13.48c-.62-6.4-.42-11.41,.27-15.01,.68-3.68,2.43-6.87,4.86-9.43,2.5-2.65,5.8-4.09,9.81-4.48,3.5-.34,6.64,.13,9.52,1.4,2.89,1.36,4.99,3.56,6.73,6.32Zm-26.58,19.8c.14,1.45,.26,2.64,.43,3.57l25.59-2.48-.31-3.24c-.34-3.5-.6-6.14-1.48-8.12-.78-1.82-2.04-3.33-4.22-4.41-2.09-1.17-4.81-1.6-7.88-1.3-4.95,.48-8.16,2-9.99,4.41-1.93,2.34-2.68,6.11-2.15,11.57Z"/><path class="cls-1" d="M4.94,443.09l-.15,9.08,42.25,.68,17.4,.28-.18,10.97-17.4-.28-42.25-.68-.13,7.97-.28,17.57-4.2-.24,1.01-62.04,4.2-.02-.27,16.71Z"/><path class="cls-1" d="M69.82,398.54c-9.13,2.33-12.54,3.26-12.54,3.26l-11.21,3.01-2.79,20.99,21.37,11.66-.72,5.44L4.1,408.32l.42-3.14,66.87-18.44-1.57,11.81Zm-51.17,13.52l20.75,11.75,2.38-17.93-23.13,6.18Z"/><path class="cls-1" d="M60.96,281.44l33.3,33.09-1.58,3.89-52.8,1.37-1.42,.07c-.84,.03-1.96,.04-3.31-.05-.96,.08-1.96,.04-2.75,.18l-9.33,.2,4.25-10.49,13.53-.53,41.18-.99-23.82-23.61c-1.62-1.49-3.03-2.8-4.15-3.9l-10.84-10.22,1.93-4.77,15.82,15.74Z"/><path class="cls-1" d="M120.27,262.31c-5,8.4-10.65,12.02-18.89,14.29-8.33,2.42-16.68,1.04-25-3.92-8.1-4.82-13.03-11.45-14.79-19.88-1.69-8.39-1.09-14.92,3.78-23.09,4.87-8.17,10.37-11.88,18.52-14.51,8.22-2.58,16.59-1.39,24.99,3.61,8.1,4.82,13.22,11.47,15.15,19.8,1.92,8.33,1.39,15.09-3.74,23.71Zm-51.23-30.41c-3.46,5.82-3.17,9.68-1.08,15.22,2.06,5.42,6.91,10.5,14.94,15.28,8.1,4.82,15.03,6.76,20.78,5.99,5.79-.84,9.41-2.57,13.14-8.83,3.25-5.45,3.39-10.05,1.38-15.54-2.02-5.49-7.35-9.77-15.53-14.63-7.95-4.74-14.25-7.39-20-6.62-5.89,.68-10.07,3.18-13.63,9.14Z"/><path class="cls-1" d="M138.56,184.1c-.77,3.24-3.88,7.45-8.28,12.83l-3.53,4.31,9.68,7.92c2.06,1.68,3.06,2.62,4.71,3.85l-1.45,.14c1.45-.14,9.54,6.48,9.54,6.48l-6.89,8.42-12.8-10.48-23.22-19-13.4-10.96,8.58-10.48c4.07-4.98,7.75-8.39,10.77-10.46,3.08-2.13,6.57-3.15,10.09-3.26,3.64-.12,7,1.19,10.12,3.74,2.72,2.23,4.62,4.78,5.77,7.71,1.09,3,1.03,6.05,.31,9.23Zm-32.81-4.7c-.92,1.13-1.68,2.06-2.21,2.84l19.9,16.28,2.06-2.52c2.23-2.72,3.91-4.78,4.68-6.8,.73-1.84,.9-3.81,.12-6.1-.66-2.31-2.28-4.52-4.67-6.48-3.85-3.15-7.19-4.34-10.2-3.91-3.02,.3-6.21,2.45-9.69,6.69Z"/><path class="cls-1" d="M157.15,123.48l-6.49,6.36,29.59,30.16,12.19,12.42-7.83,7.68-12.19-12.42-29.59-30.16-5.69,5.58-12.54,12.31-2.82-3.12,44.3-43.46,3,2.94-11.93,11.7Z"/><path class="cls-1" d="M235.36,137.35c-8.1-4.82-11.16-6.57-11.16-6.57l-10.04-5.81-16.83,12.84,6.83,23.36-4.36,3.33-17.76-66.77,2.52-1.92,60.27,34.32-9.47,7.23Zm-45.7-26.68l6.33,22.99,14.38-10.97-20.71-12.01Z"/><path class="cls-1" d="M313.31,47.82v46.94l-3.89,1.62-38.18-36.5-1.05-.95c-.61-.58-1.41-1.36-2.3-2.38-.73-.62-1.41-1.36-2.07-1.83l-6.71-6.48,10.43-4.38,9.91,9.23,29.72,28.52-.03-33.54c-.08-2.2-.15-4.12-.16-5.7l-.39-14.89,4.74-1.99-.03,22.32Z"/><path class="cls-1" d="M368.67,76.43c-9.48,2.36-16.03,.9-23.44-3.34-7.58-4.2-12.48-11.11-14.83-20.51-2.28-9.15-1.05-17.32,3.7-24.5,4.77-7.11,9.82-11.28,19.05-13.58,9.23-2.3,15.74-1.01,23.34,2.93,7.63,4.02,12.67,10.8,15.03,20.28,2.28,9.15,1.17,17.46-3.39,24.69-4.56,7.23-9.74,11.61-19.47,14.04Zm-14.49-57.78c-6.57,1.64-9.11,4.57-11.57,9.95-2.39,5.28-2.59,12.3-.33,21.37,2.28,9.15,5.79,15.43,10.38,18.97,4.67,3.52,8.46,4.87,15.53,3.11,6.15-1.53,9.52-4.67,12-9.97s1.76-12.1-.54-21.33c-2.24-8.98-4.79-15.32-9.38-18.86-4.63-3.7-9.35-4.91-16.09-3.23Z"/><path class="cls-1" d="M437.1,34.37c-2.85,1.73-8.03,2.49-14.94,3.14l-5.55,.53,1.18,12.46c.25,2.64,.3,4.02,.58,6.06l-1.12-.93c1.12,.93,2.11,11.34,2.11,11.34l-10.84,1.03-1.57-16.47-2.84-29.86-1.64-17.23,13.48-1.28c6.4-.61,11.41-.4,15.01,.29,3.68,.68,6.86,2.45,9.42,4.87,2.65,2.5,4.08,5.81,4.46,9.82,.33,3.5-.14,6.64-1.42,9.52-1.36,2.88-3.57,4.99-6.33,6.72Zm-19.75-26.62c-1.45,.14-2.65,.25-3.58,.43l2.44,25.6,3.24-.31c3.5-.33,6.14-.58,8.13-1.46,1.82-.78,3.34-2.04,4.42-4.21,1.18-2.09,1.61-4.8,1.32-7.87-.47-4.95-1.98-8.16-4.39-10-2.34-1.93-6.11-2.69-11.57-2.17Z"/><path class="cls-1" d="M493.29,4.94l-9.08-.15-.68,42.25-.28,17.4-10.97-.18,.28-17.4,.68-42.25-7.97-.13-17.57-.28,.24-4.2,62.04,1.01,.02,4.2-16.71-.27Z"/><path class="cls-1" d="M538.44,70.15c-2.29-9.14-3.2-12.55-3.2-12.55l-2.95-11.22-20.97-2.89-11.76,21.3-5.43-.75,34.88-59.64,3.14,.43,18.1,66.95-11.8-1.63Zm-13.26-51.23l-11.85,20.69,17.91,2.47-6.06-23.16Z"/><path class="cls-1" d="M656.92,62.5l-33.36,33.02-3.88-1.61-.93-52.81-.06-1.42c-.02-.84-.02-1.96,.07-3.31-.07-.96-.02-1.96-.16-2.76l-.12-9.33,10.45,4.33,.42,13.54,.64,41.18,23.81-23.62c1.5-1.6,2.82-3,3.94-4.12l10.31-10.76,4.75,1.97-15.88,15.69Z"/><path class="cls-1" d="M675.57,121.98c-8.35-5.07-11.92-10.75-14.13-19-2.35-8.35-.9-16.69,4.12-24.97,4.89-8.06,11.56-12.93,20.01-14.63,8.4-1.62,14.92-.97,23.06,3.97,8.13,4.94,11.79,10.47,14.35,18.64,2.52,8.24,1.25,16.6-3.82,24.95-4.89,8.06-11.58,13.13-19.92,14.98-8.34,1.85-15.1,1.26-23.67-3.94Zm30.83-50.96c-5.79-3.51-9.65-3.25-15.21-1.21-5.43,2.02-10.56,6.83-15.41,14.81-4.89,8.06-6.88,14.97-6.16,20.72,.79,5.8,2.5,9.43,8.72,13.21,5.42,3.29,10.02,3.48,15.53,1.5,5.51-1.97,9.83-7.27,14.76-15.4,4.8-7.91,7.51-14.19,6.79-19.94-.63-5.9-3.09-10.1-9.03-13.7Z"/><path class="cls-1" d="M753.61,140.91c-3.24-.8-7.42-3.95-12.76-8.39l-4.28-3.56-8,9.62c-1.7,2.04-2.64,3.04-3.89,4.68l-.13-1.45c.13,1.45-6.56,9.49-6.56,9.49l-8.37-6.96,10.58-12.71,19.19-23.06,11.07-13.31,10.41,8.66c4.94,4.11,8.32,7.82,10.37,10.86,2.11,3.09,3.1,6.59,3.18,10.11,.09,3.64-1.25,6.99-3.82,10.09-2.25,2.7-4.81,4.58-7.75,5.7-3.01,1.07-6.06,.98-9.23,.24Zm4.97-32.77c-1.12-.93-2.04-1.7-2.82-2.24l-16.45,19.76,2.5,2.08c2.7,2.25,4.74,3.95,6.76,4.74,1.83,.74,3.8,.93,6.1,.17,2.31-.64,4.54-2.24,6.51-4.61,3.18-3.82,4.4-7.16,4-10.16-.28-3.02-2.4-6.23-6.61-9.74Z"/><path class="cls-1" d="M814.08,160.01l-6.31-6.54-30.4,29.34-12.52,12.08-7.62-7.89,12.52-12.08,30.4-29.34-5.53-5.74-12.2-12.64,3.14-2.79,43.09,44.65-2.96,2.98-11.6-12.03Z"/><path class="cls-1" d="M799.56,238.09c4.88-8.06,6.67-11.11,6.67-11.11l5.9-9.99-12.7-16.93-23.41,6.64-3.29-4.39,66.92-17.2,1.9,2.54-34.82,59.99-7.15-9.53Zm27.06-45.48l-23.04,6.14,10.85,14.47,12.18-20.61Z"/></g><g><path class="cls-1" d="M715.48,383.75h-116.4l-44.33,44.33-12.15,12.15-12.15-12.15-44.33-44.33-18.35-18.35-.27,.27-.27-.27-18.35,18.35-44.33,44.33-12.15,12.15-12.15-12.15-44.33-44.33H156.84l44.33,44.33,101.69,101.7,31.35,31.35,31.35-31.35,26.85-26.85,31.35-31.35,43.5-43.5h.5l43.5,43.5,31.35,31.35,26.85,26.85,31.35,31.35,31.35-31.35,101.7-101.7,44.33-44.33h-62.69Zm-381.26,114.68l-70.35-70.35h53.7l43.5,43.5-26.85,26.85Zm266.58,0l-26.85-26.85,43.5-43.5h53.7l-70.35,70.35Z"/><path class="cls-1" d="M498.85,546.67l21.42-21.42-31.35-31.35-21.42,21.42h0l-21.42-21.42-31.35,31.35,21.42,21.42-26.85,26.85-31.35,31.35,31.35,31.35,26.85,26.85,31.35,31.35,31.35-31.35,26.85-26.85,31.35-31.35-31.35-31.35-26.85-26.85Zm-31.35,85.05l-26.85-26.85,26.85-26.85,26.85,26.85-26.85,26.85Z"/><polygon class="cls-1" points="392.41 388.8 467.75 313.45 543.1 388.8 574.45 357.45 556.17 339.17 556.17 339.17 499.1 282.1 499.1 282.1 467.76 250.75 467.76 250.75 467.76 250.75 467.75 250.75 467.75 250.75 467.75 250.75 467.75 250.75 436.41 282.1 436.41 282.1 379.34 339.17 379.34 339.17 361.06 357.45 392.41 388.8"/></g></svg>