<?xml version="1.0" encoding="UTF-8"?><svg id="Camada_1" xmlns="http://www.w3.org/2000/svg" viewBox="0 0 1383.16 309.47"><defs><style>.cls-1{fill:#fff;}</style></defs><path class="cls-1" d="M166.38,309.47h-31.67L0,0H68.89l101.13,230.59L263.47,0h33.58L166.38,309.47Z"/><path class="cls-1" d="M446.35,309.47c-47.33,0-76.46-14.56-106.39-42.88-30.74-29.13-45.71-67.15-45.71-114.08s15.37-82.93,46.52-110.84C371.11,14.16,399.83,0,445.95,0s75.24,13.75,105.99,40.86c31.55,28.32,47.33,66.34,47.33,113.27s-14.97,83.33-45.31,112.06c-29.53,28.72-59.06,43.29-107.61,43.29Zm-.4-281.15c-30.34,0-44.5,9.71-61.09,30.74-16.18,20.23-25.08,51.78-25.08,95.07s8.9,75.65,25.08,95.88c16.59,21.04,31.55,30.74,64.32,30.74,28.72,0,46.52-10.11,63.51-30.74,15.78-19.82,20.63-50.57,20.63-95.47s-4.45-74.03-20.63-94.66c-16.18-21.04-35.19-31.55-66.75-31.55Z"/><path class="cls-1" d="M812.46,163.84c-15.78,7.28-40.86,8.5-73.63,8.5h-22.25v137.14h-59.47V0h67.96c30.34,0,54.21,3.24,71.6,8.09,17.8,5.26,32.36,15.37,44.09,28.32,11.73,14.16,17.4,31.15,17.4,50.97,0,17.4-3.64,32.36-11.73,46.12-8.09,13.75-19.82,23.46-33.98,30.34ZM729.53,30.34h-12.95v113.68h11.33c16.99,0,28.72-.4,37.22-3.24,8.5-2.43,15.37-6.88,21.04-15.78,5.66-8.9,8.9-20.23,8.9-34.39,0-22.65-5.66-37.22-14.97-46.12-9.3-8.9-25.08-14.16-50.57-14.16Z"/><path class="cls-1" d="M1038.59,32.58V309.47h-59.87V32.58h-120.55l.81-32.58h300.98l.4,32.58h-121.77Z"/><path class="cls-1" d="M1312.96,309.47c-17.4-43.69-44.09-107.2-44.09-107.2h-94.26l-41.26,107.2h-34.79L1226.39,0h24.89l131.88,309.47h-70.2Zm-92.23-224.11l-36,89.4h73.22l-37.22-89.4Z"/></svg>